<?xml version="1.0" encoding="UTF-8" standalone="no"?>
<svg
   xmlns:dc="http://purl.org/dc/elements/1.1/"
   xmlns:cc="http://creativecommons.org/ns#"
   xmlns:rdf="http://www.w3.org/1999/02/22-rdf-syntax-ns#"
   xmlns:svg="http://www.w3.org/2000/svg"
   xmlns="http://www.w3.org/2000/svg"
   id="svg3428"
   version="1.1"
   viewBox="0 0 48.674 48.450001"
   height="48.450001mm"
   width="48.674mm">
  <defs
     id="defs3422" />
  <metadata
     id="metadata3425">
    <rdf:RDF>
      <cc:Work
         rdf:about="">
        <dc:format>image/svg+xml</dc:format>
        <dc:type
           rdf:resource="http://purl.org/dc/dcmitype/StillImage" />
        <dc:title></dc:title>
      </cc:Work>
    </rdf:RDF>
  </metadata>
  <g
     transform="translate(0,-248.55)"
     id="layer1">
    <g
       transform="translate(-99.216761,49.038841)"
       id="g4776">
      <path
         style="fill:none;stroke:#e59d5c;stroke-width:1;stroke-linecap:round;stroke-linejoin:miter;stroke-miterlimit:4;stroke-dasharray:none;stroke-opacity:1"
         d="m 99.717295,247.45404 c 0,0 2.220005,-32.38944 10.557145,-33.50169 3.88666,-0.51852 3.72896,9.89888 7.55037,9.02035 3.93787,-0.90531 1.75864,-15.5682 5.77478,-16.0121 6.61338,-0.73098 4.96036,33.21158 11.59936,32.7703 10.55615,-0.70165 11.95436,-36.99356 11.95436,-36.99356"
         id="path1691" />
      <path
         style="fill:none;stroke:#eed698;stroke-width:1;stroke-linecap:round;stroke-linejoin:miter;stroke-miterlimit:4;stroke-dasharray:none;stroke-opacity:1"
         d="m 99.717295,247.45404 c 0,0 0.900155,-39.09064 12.189735,-40.72694 2.58749,-0.37503 4.57367,30.05181 7.18155,30.2381 5.88758,0.42057 3.35673,-37.6686 9.07143,-36.19122 11.51161,2.97601 1.77165,39.68339 13.60713,40.82143 7.34741,0.70649 5.38617,-20.78869 5.38617,-20.78869"
         id="path1695" />
      <path
         style="fill:none;stroke:#c3c3c3;stroke-width:1;stroke-linecap:round;stroke-linejoin:round;stroke-miterlimit:4;stroke-dasharray:none;stroke-opacity:1"
         d="m 99.717295,200.01802 v 47.43602 h 47.436015"
         id="path1670" />
    </g>
  </g>
</svg>
