<?xml version="1.0" encoding="UTF-8" standalone="no"?>
<svg
   xmlns:dc="http://purl.org/dc/elements/1.1/"
   xmlns:cc="http://creativecommons.org/ns#"
   xmlns:rdf="http://www.w3.org/1999/02/22-rdf-syntax-ns#"
   xmlns:svg="http://www.w3.org/2000/svg"
   xmlns="http://www.w3.org/2000/svg"
   id="svg11688"
   version="1.1"
   viewBox="0 0 25 25"
   height="25mm"
   width="25mm">
  <defs
     id="defs11682" />
  <metadata
     id="metadata11685">
    <rdf:RDF>
      <cc:Work
         rdf:about="">
        <dc:format>image/svg+xml</dc:format>
        <dc:type
           rdf:resource="http://purl.org/dc/dcmitype/StillImage" />
        <dc:title></dc:title>
      </cc:Work>
    </rdf:RDF>
  </metadata>
  <rect
     style="opacity:1;vector-effect:none;fill:#f9efd8;fill-opacity:1;stroke:none;stroke-width:5;stroke-linecap:butt;stroke-linejoin:round;stroke-miterlimit:4;stroke-dasharray:none;stroke-dashoffset:0;stroke-opacity:1;paint-order:normal"
     id="rect826"
     width="25"
     height="25"
     x="-5.5511151e-016"
     y="-25"
     transform="scale(1,-1)"
     ry="0" />
  <g
     style="stroke-width:1.39722764"
     transform="matrix(0.71745524,0,0,0.71395506,5.7007878,-194.8785)"
     id="layer1">
    <g
       style="stroke-width:1.39722764"
       transform="translate(-122.89043,97.732582)"
       id="g13329">
      <g
         style="stroke-width:1.39722764"
         id="g11649"
         transform="rotate(79.143129,57.480887,233.91322)">
        <path
           style="opacity:1;vector-effect:none;fill:#ffffff;fill-opacity:1;stroke:#eed698;stroke-width:0.69861382;stroke-linecap:round;stroke-linejoin:round;stroke-miterlimit:4;stroke-dasharray:none;stroke-dashoffset:0;stroke-opacity:1;paint-order:normal"
           d="m 33.690349,150.3694 a 3.0067821,3.0067821 0 0 1 -3.006782,3.00678 3.0067821,3.0067821 0 0 1 -3.006782,-3.00678 3.0067821,3.0067821 0 0 1 3.006782,-3.00678 3.0067821,3.0067821 0 0 1 3.006782,3.00678 z"
           id="path3457" />
        <g
           style="stroke-width:1.39722764"
           id="g11336">
          <path
             style="fill:none;stroke:#eed698;stroke-width:0.69861376;stroke-linecap:round;stroke-linejoin:miter;stroke-miterlimit:4;stroke-dasharray:none;stroke-opacity:1"
             d="m 30.683567,146.30709 v -1.23137"
             id="path6411"
             transform="matrix(-0.672325,-0.739743,0.739743,-0.672325,-60.041166,274.22124)" />
          <path
             style="fill:none;stroke:#eed698;stroke-width:0.69861376;stroke-linecap:round;stroke-linejoin:miter;stroke-miterlimit:4;stroke-dasharray:none;stroke-opacity:1"
             d="m 30.683567,146.30709 v -1.23137"
             id="path8871"
             transform="matrix(-0.248923,-0.968095,0.968095,-0.248923,-107.38099,217.50697)" />
          <path
             style="fill:none;stroke:#eed698;stroke-width:0.69861376;stroke-linecap:round;stroke-linejoin:miter;stroke-miterlimit:4;stroke-dasharray:none;stroke-opacity:1"
             d="m 30.683567,146.30709 v -1.23137"
             id="path2414"
             transform="matrix(0.248923,-0.968095,0.968095,0.248923,-122.65671,142.64107)" />
          <path
             style="fill:none;stroke:#eed698;stroke-width:0.69861376;stroke-linecap:round;stroke-linejoin:miter;stroke-miterlimit:4;stroke-dasharray:none;stroke-opacity:1"
             d="m 30.683567,146.30709 v -1.23137"
             id="path0611"
             transform="matrix(0.672325,-0.739743,0.739743,0.672325,-101.29982,71.913497)" />
          <path
             style="fill:none;stroke:#eed698;stroke-width:0.69861376;stroke-linecap:round;stroke-linejoin:miter;stroke-miterlimit:4;stroke-dasharray:none;stroke-opacity:1"
             d="m 30.683567,146.30709 v -1.23137"
             id="path5147"
             transform="matrix(0.938697,-0.343567,0.343567,0.938697,-49.857505,19.652619)" />
          <path
             style="fill:none;stroke:#eed698;stroke-width:0.69861376;stroke-linecap:round;stroke-linejoin:miter;stroke-miterlimit:4;stroke-dasharray:none;stroke-opacity:1"
             d="m 30.683567,146.30709 v -1.23137"
             id="path7982"
             transform="matrix(0.988136,0.150807,-0.150807,0.988136,22.969008,-2.982407)" />
        </g>
      </g>
      <g
         style="stroke-width:1.39722764"
         transform="translate(114.85515,38.391567)"
         id="g3239">
        <path
           style="opacity:1;vector-effect:none;fill:#ffffff;fill-opacity:1;stroke:#eed698;stroke-width:2.64043021;stroke-linecap:butt;stroke-linejoin:round;stroke-miterlimit:4;stroke-dasharray:none;stroke-dashoffset:0;stroke-opacity:1;paint-order:normal"
           d="m 53.791016,573.56445 a 13.592224,14.33154 0 0 0 -13.398438,12.01367 10.227795,10.796005 0 0 0 -9.078125,10.71485 10.227795,10.796005 0 0 0 10.228516,10.79687 10.227795,10.796005 0 0 0 0.945312,-0.0566 v 0.0566 h 29.810547 5.798828 1.705078 v -0.0586 a 8.4499011,8.5862975 0 0 0 0.947266,0.0586 8.4499011,8.5862975 0 0 0 8.449219,-8.58593 8.4499011,8.5862975 0 0 0 -8.449219,-8.58789 8.4499011,8.5862975 0 0 0 -4.429688,1.28125 6.5028921,6.8816654 0 0 0 0.261719,-1.91211 6.5028921,6.8816654 0 0 0 -6.501953,-6.88086 6.5028921,6.8816654 0 0 0 -3.394531,1.01758 13.592224,14.33154 0 0 0 -12.894531,-9.85743 z"
           transform="scale(0.26458333)"
           id="path2872" />
        <path
           style="opacity:1;vector-effect:none;fill:#ffffff;fill-opacity:1;stroke:#eed698;stroke-width:0.69861376;stroke-linecap:butt;stroke-linejoin:round;stroke-miterlimit:4;stroke-dasharray:none;stroke-dashoffset:0;stroke-opacity:1;paint-order:normal"
           d="m 22.154492,153.83447 a 2.7723647,2.9032051 0 0 1 2.732839,2.43365 2.0861323,2.1869958 0 0 1 1.851637,2.17055 2.0861323,2.1869958 0 0 1 -2.08628,2.18718 2.0861323,2.1869958 0 0 1 -0.192812,-0.0115 v 0.0115 H 18.379509 17.19674 16.84896 v -0.0119 a 1.7235007,1.7393653 0 0 1 -0.193211,0.0119 1.7235007,1.7393653 0 0 1 -1.723361,-1.73929 1.7235007,1.7393653 0 0 1 1.723361,-1.73969 1.7235007,1.7393653 0 0 1 0.903511,0.25956 1.3263752,1.3940502 0 0 1 -0.05338,-0.38735 1.3263752,1.3940502 0 0 1 1.326184,-1.39389 1.3263752,1.3940502 0 0 1 0.692373,0.20614 2.7723647,2.9032051 0 0 1 2.630058,-1.99686 z"
           id="path2872-6" />
      </g>
    </g>
  </g>
</svg>
